<svg xmlns="http://www.w3.org/2000/svg" viewBox="0 0 800 520"><defs>
<linearGradient id="bg" x1="0" y1="0" x2="1" y2="1"><stop offset="0" stop-color="#12306a"/><stop offset="1" stop-color="#061024"/></linearGradient>
<linearGradient id="gd" x1="0" y1="0" x2="1" y2="1"><stop offset="0" stop-color="#f6d47f"/><stop offset="1" stop-color="#d6a94a"/></linearGradient>
<linearGradient id="bl" x1="0" y1="0" x2="1" y2="1"><stop offset="0" stop-color="#6d9bf2"/><stop offset="1" stop-color="#2f5fc4"/></linearGradient>
<linearGradient id="pn" x1="0" y1="0" x2="0" y2="1"><stop offset="0" stop-color="#173a7e"/><stop offset="1" stop-color="#0d2554"/></linearGradient>
<linearGradient id="ar" x1="0" y1="0" x2="0" y2="1"><stop offset="0" stop-color="#f0c96b" stop-opacity=".55"/><stop offset="1" stop-color="#f0c96b" stop-opacity="0"/></linearGradient>
<radialGradient id="gl"><stop offset="0" stop-color="#3b6fe0" stop-opacity=".55"/><stop offset="1" stop-color="#3b6fe0" stop-opacity="0"/></radialGradient>
<radialGradient id="gg"><stop offset="0" stop-color="#d6a94a" stop-opacity=".35"/><stop offset="1" stop-color="#d6a94a" stop-opacity="0"/></radialGradient>
<pattern id="gr" width="40" height="40" patternUnits="userSpaceOnUse"><path d="M40 0H0V40" fill="none" stroke="#fff" stroke-opacity=".05"/></pattern>
<filter id="sh" x="-20%" y="-20%" width="140%" height="160%"><feDropShadow dx="0" dy="10" stdDeviation="10" flood-color="#000" flood-opacity=".35"/></filter>
</defs><rect width="800" height="520" fill="url(#bg)"/><rect width="800" height="520" fill="url(#gr)"/><circle cx="400.0" cy="260.0" r="400.0" fill="url(#gl)"/><circle cx="240.0" cy="156.0" r="240.0" fill="url(#gg)"/><rect x="90" y="90" width="250" height="250" rx="28" fill="url(#pn)" fill-opacity="1" stroke="#4a78d6" stroke-opacity=".55" stroke-width="1.5" filter="url(#sh)"/><circle cx="215" cy="205" r="82" fill="none" fill-opacity="1" stroke="url(#gd)" stroke-width="12"/><path d="M170,250 L250,170 M215,170 L250,170 L250,205" fill="none" stroke="url(#bl)" stroke-width="16" stroke-linecap="round" stroke-linejoin="round" fill-opacity="1"/><rect x="160" y="278" width="18" height="22" rx="3" fill="url(#bl)" fill-opacity="1" /><rect x="188" y="266" width="18" height="34" rx="3" fill="url(#bl)" fill-opacity="1" /><rect x="216" y="252" width="18" height="48" rx="3" fill="url(#bl)" fill-opacity="1" /><rect x="380" y="90" width="200" height="110" rx="16" fill="url(#pn)" fill-opacity="1" stroke="#4a78d6" stroke-opacity=".55" stroke-width="1.5" filter="url(#sh)"/><text x="480" y="170" text-anchor="middle" font-family="Arial,sans-serif" font-weight="700" font-size="72" fill="#fff">Aa</text><rect x="610" y="90" width="100" height="110" rx="16" fill="url(#pn)" fill-opacity="1" stroke="#4a78d6" stroke-opacity=".55" stroke-width="1.5" filter="url(#sh)"/><rect x="628" y="108" width="64" height="10" rx="5" fill="url(#gd)" fill-opacity="1" /><rect x="628" y="130" width="50" height="8" rx="4" fill="#fff" fill-opacity="0.5" /><rect x="628" y="148" width="40" height="8" rx="4" fill="#fff" fill-opacity="0.5" /><path d="M400,320 C460,220 520,380 580,270 S680,300 700,240" fill="none" stroke="#f0c96b" stroke-width="4" stroke-linecap="round" stroke-linejoin="round" fill-opacity="1"/><line x1="400" y1="320" x2="430" y2="260" stroke="#fff" stroke-width="2" stroke-opacity="0.6" stroke-linecap="round"/><line x1="580" y1="270" x2="610" y2="330" stroke="#fff" stroke-width="2" stroke-opacity="0.6" stroke-linecap="round"/><rect x="392" y="312" width="16" height="16" rx="3" fill="#fff" fill-opacity="1" stroke="#0a1c3f" stroke-width="2"/><rect x="572" y="262" width="16" height="16" rx="3" fill="#fff" fill-opacity="1" stroke="#0a1c3f" stroke-width="2"/><rect x="692" y="232" width="16" height="16" rx="3" fill="#fff" fill-opacity="1" stroke="#0a1c3f" stroke-width="2"/><circle cx="150" cy="430" r="36" fill="url(#gd)" fill-opacity="1" stroke="none" stroke-width="0"/><circle cx="242" cy="430" r="36" fill="url(#bl)" fill-opacity="1" stroke="none" stroke-width="0"/><circle cx="334" cy="430" r="36" fill="#0a1c3f" fill-opacity="1" stroke="#fff" stroke-width="3"/><circle cx="426" cy="430" r="36" fill="#fff" fill-opacity="1" stroke="none" stroke-width="0"/><rect x="530" y="380" width="190" height="90" rx="16" fill="url(#pn)" fill-opacity="1" stroke="#4a78d6" stroke-opacity=".55" stroke-width="1.5" filter="url(#sh)"/><rect x="546" y="398" width="160" height="14" rx="7" fill="#fff" fill-opacity="0.75" /><rect x="546" y="424" width="110" height="10" rx="5" fill="#fff" fill-opacity="0.35" /><rect x="546" y="444" width="60" height="10" rx="5" fill="url(#gd)" fill-opacity="1" /></svg>