<svg xmlns="http://www.w3.org/2000/svg" viewBox="0 0 800 520"><defs>
<linearGradient id="bg" x1="0" y1="0" x2="1" y2="1"><stop offset="0" stop-color="#12306a"/><stop offset="1" stop-color="#061024"/></linearGradient>
<linearGradient id="gd" x1="0" y1="0" x2="1" y2="1"><stop offset="0" stop-color="#f6d47f"/><stop offset="1" stop-color="#d6a94a"/></linearGradient>
<linearGradient id="bl" x1="0" y1="0" x2="1" y2="1"><stop offset="0" stop-color="#6d9bf2"/><stop offset="1" stop-color="#2f5fc4"/></linearGradient>
<linearGradient id="pn" x1="0" y1="0" x2="0" y2="1"><stop offset="0" stop-color="#173a7e"/><stop offset="1" stop-color="#0d2554"/></linearGradient>
<linearGradient id="ar" x1="0" y1="0" x2="0" y2="1"><stop offset="0" stop-color="#f0c96b" stop-opacity=".55"/><stop offset="1" stop-color="#f0c96b" stop-opacity="0"/></linearGradient>
<radialGradient id="gl"><stop offset="0" stop-color="#3b6fe0" stop-opacity=".55"/><stop offset="1" stop-color="#3b6fe0" stop-opacity="0"/></radialGradient>
<radialGradient id="gg"><stop offset="0" stop-color="#d6a94a" stop-opacity=".35"/><stop offset="1" stop-color="#d6a94a" stop-opacity="0"/></radialGradient>
<pattern id="gr" width="40" height="40" patternUnits="userSpaceOnUse"><path d="M40 0H0V40" fill="none" stroke="#fff" stroke-opacity=".05"/></pattern>
<filter id="sh" x="-20%" y="-20%" width="140%" height="160%"><feDropShadow dx="0" dy="10" stdDeviation="10" flood-color="#000" flood-opacity=".35"/></filter>
</defs><rect width="800" height="520" fill="url(#bg)"/><rect width="800" height="520" fill="url(#gr)"/><circle cx="400.0" cy="260.0" r="400.0" fill="url(#gl)"/><circle cx="160.0" cy="156.0" r="240.0" fill="url(#gg)"/><rect x="290" y="40" width="220" height="440" rx="34" fill="url(#pn)" fill-opacity="1" stroke="#4a78d6" stroke-opacity=".55" stroke-width="1.5" filter="url(#sh)"/><rect x="360" y="54" width="80" height="10" rx="5" fill="#0a1c3f" fill-opacity="0.8" /><circle cx="325" cy="110" r="20" fill="#12306a" fill-opacity="1" stroke="#4a78d6" stroke-width="2"/><circle cx="325" cy="106.4" r="6.0" fill="url(#bl)" fill-opacity="1" stroke="none" stroke-width="0"/><path d="M314.0,122.4 Q325,106.0 336.0,122.4Z" fill="url(#bl)" stroke="none" stroke-width="0" stroke-linecap="round" stroke-linejoin="round" fill-opacity="1"/><rect x="355" y="98" width="90" height="8" rx="4" fill="#fff" fill-opacity="0.7" /><rect x="355" y="114" width="60" height="6" rx="3" fill="#fff" fill-opacity="0.35" /><rect x="306" y="148" width="188" height="150" rx="12" fill="url(#bl)" fill-opacity="1" /><circle cx="400" cy="205" r="30" fill="#fff" fill-opacity="0.25" stroke="none" stroke-width="0"/><path d="M330,290 L380,230 L420,270 L450,240 L490,290Z" fill="#fff" stroke="none" stroke-width="0" stroke-linecap="round" stroke-linejoin="round" fill-opacity="0.28"/><path d="M0,0.9 C-1.3,-0.1 -0.9,-1.1 0,-0.5 C0.9,-1.1 1.3,-0.1 0,0.9Z" fill="url(#gd)" stroke="none" stroke-width="0" stroke-linecap="round" stroke-linejoin="round" fill-opacity="1" transform="translate(322 330) scale(12)"/><path d="M345,318 h22 v16 h-12 l-6,6 v-6 h-4Z" fill="none" stroke="#fff" stroke-width="3" stroke-linecap="round" stroke-linejoin="round" fill-opacity="1"/><path d="M470,330 l-20,-12 v24Z" fill="#fff" stroke="none" stroke-width="0" stroke-linecap="round" stroke-linejoin="round" fill-opacity="1"/><rect x="306" y="362" width="180" height="6" rx="3" fill="#fff" fill-opacity="0.35" /><rect x="306" y="378" width="180" height="6" rx="3" fill="#fff" fill-opacity="0.35" /><rect x="306" y="394" width="108.0" height="6" rx="3" fill="#fff" fill-opacity="0.35" /><rect x="306" y="420" width="188" height="30" rx="15" fill="url(#gd)" fill-opacity="0.9" /><circle cx="180" cy="150" r="56" fill="url(#gd)" fill-opacity="1" stroke="none" stroke-width="0"/><path d="M0,0.9 C-1.3,-0.1 -0.9,-1.1 0,-0.5 C0.9,-1.1 1.3,-0.1 0,0.9Z" fill="#fff" stroke="none" stroke-width="0" stroke-linecap="round" stroke-linejoin="round" fill-opacity="1" transform="translate(180 152) scale(26)"/><rect x="560" y="110" width="170" height="90" rx="20" fill="url(#pn)" fill-opacity="1" stroke="#4a78d6" stroke-opacity=".55" stroke-width="1.5" filter="url(#sh)"/><path d="M585,200 l-10,22 l30,-22" fill="#173a7e" stroke="none" stroke-width="0" stroke-linecap="round" stroke-linejoin="round" fill-opacity="1"/><rect x="582" y="134" width="110" height="6" rx="3" fill="#fff" fill-opacity="0.35" /><rect x="582" y="150" width="110" height="6" rx="3" fill="#fff" fill-opacity="0.35" /><rect x="582" y="166" width="66.0" height="6" rx="3" fill="#fff" fill-opacity="0.35" /><circle cx="650" cy="340" r="50" fill="url(#bl)" fill-opacity="1" stroke="none" stroke-width="0"/><path d="M0,0.9 C-1.3,-0.1 -0.9,-1.1 0,-0.5 C0.9,-1.1 1.3,-0.1 0,0.9Z" fill="#fff" stroke="none" stroke-width="0" stroke-linecap="round" stroke-linejoin="round" fill-opacity="1" transform="translate(650 344) scale(22)"/><circle cx="160" cy="340" r="40" fill="#12306a" fill-opacity="1" stroke="#4a78d6" stroke-width="3"/><path d="M145,340 l12,12 l22,-26" fill="none" stroke="#f0c96b" stroke-width="7" stroke-linecap="round" stroke-linejoin="round" fill-opacity="1"/><circle cx="120" cy="250" r="8" fill="#f0c96b" fill-opacity="1" stroke="none" stroke-width="0"/><circle cx="700" cy="260" r="10" fill="#6d9bf2" fill-opacity="1" stroke="none" stroke-width="0"/><circle cx="580" cy="430" r="8" fill="#f0c96b" fill-opacity="1" stroke="none" stroke-width="0"/></svg>